<svg width="24" height="22" viewBox="0 0 24 22" fill="none" xmlns="http://www.w3.org/2000/svg">
<g filter="url(#filter0_d_191_201)">
<path d="M12 0C6.486 0 2 4.486 2 10C2 15.514 6.486 20 12 20C17.514 20 22 15.514 22 10C22 4.486 17.514 0 12 0ZM12 18C7.589 18 4 14.411 4 10C4 5.589 7.589 2 12 2C16.411 2 20 5.589 20 10C20 14.411 16.411 18 12 18Z" fill="#498BDA"/>
<path d="M8.5 10C9.32843 10 10 9.32843 10 8.5C10 7.67157 9.32843 7 8.5 7C7.67157 7 7 7.67157 7 8.5C7 9.32843 7.67157 10 8.5 10Z" fill="#498BDA"/>
<path d="M15.493 9.986C16.3176 9.986 16.986 9.31756 16.986 8.493C16.986 7.66844 16.3176 7 15.493 7C14.6684 7 14 7.66844 14 8.493C14 9.31756 14.6684 9.986 15.493 9.986Z" fill="#498BDA"/>
<path d="M12 16C16 16 17 12 17 12H7C7 12 8 16 12 16Z" fill="#498BDA"/>
</g>
<defs>
<filter id="filter0_d_191_201" x="-2" y="0" width="28" height="28" filterUnits="userSpaceOnUse" color-interpolation-filters="sRGB">
<feFlood flood-opacity="0" result="BackgroundImageFix"/>
<feColorMatrix in="SourceAlpha" type="matrix" values="0 0 0 0 0 0 0 0 0 0 0 0 0 0 0 0 0 0 127 0" result="hardAlpha"/>
<feOffset dy="4"/>
<feGaussianBlur stdDeviation="2"/>
<feComposite in2="hardAlpha" operator="out"/>
<feColorMatrix type="matrix" values="0 0 0 0 0 0 0 0 0 0 0 0 0 0 0 0 0 0 0.25 0"/>
<feBlend mode="normal" in2="BackgroundImageFix" result="effect1_dropShadow_191_201"/>
<feBlend mode="normal" in="SourceGraphic" in2="effect1_dropShadow_191_201" result="shape"/>
</filter>
</defs>
</svg>
